<svg id="ic_rotate_left_24" xmlns="http://www.w3.org/2000/svg" width="24" height="24" viewBox="0 0 24 24">
  <rect id="backplate" width="24" height="24" fill="none"/>
  <path id="icon" d="M12,17a1,1,0,0,1-.707-.293l-4-4a1,1,0,0,1,0-1.414l4-4a1,1,0,0,1,1.414,0l4,4a1,1,0,0,1,0,1.414l-4,4A1,1,0,0,1,12,17M9.411,12,12,14.586,14.583,12,12,9.414Zm2.538-9.894A9.944,9.944,0,0,0,7,3.415V3A1,1,0,0,0,5,3V6A1,1,0,0,0,6,7H9A1,1,0,0,0,9,5H8.278a8.044,8.044,0,0,1,9.364,12.843,1,1,0,1,0,1.414,1.414A10.048,10.048,0,0,0,11.949,2.106M12,20a1,1,0,1,0,1,1,1,1,0,0,0-1-1M3,11a1,1,0,1,0,1,1,1,1,0,0,0-1-1m.5-3.5a1,1,0,1,0,1,1,1,1,0,0,0-1-1m5,12a1,1,0,1,0,1,1,1,1,0,0,0-1-1m7,0a1,1,0,1,0,1,1,1,1,0,0,0-1-1m-12-5a1,1,0,1,0,1,1,1,1,0,0,0-1-1m2,3a1,1,0,1,0,1,1,1,1,0,0,0-1-1" fill="#41505e"/>
</svg>
