<svg id="ic_rectangle_24" xmlns="http://www.w3.org/2000/svg" width="24" height="24" viewBox="0 0 24 24">
  <rect id="backplate" width="24" height="24" fill="none"/>
  <path id="icon" d="M20,4H4A2,2,0,0,0,2,6V18a2,2,0,0,0,2,2H20a2,2,0,0,0,2-2V6a2,2,0,0,0-2-2m0,11.293L17.29,18H15.7L20,13.707Zm0-3L14.29,18H12.7L20,10.707Zm0-3L11.29,18H9.7L20,7.707Zm0-3L8.29,18H6.7l12-12H20ZM4,8.707,6.7,6H8.29L4,10.293Zm0,3L9.7,6H11.29L4,13.293Zm0,3L12.7,6H14.29L4,16.293ZM5.29,6,4,7.293V6ZM4,17.707,15.7,6H17.29l-12,12H4ZM18.7,18,20,16.707V18Z" fill="#41505e"/>
</svg>
